<?xml version="1.0" encoding="utf-8"?>
<!-- Generator: Adobe Illustrator 16.0.3, SVG Export Plug-In . SVG Version: 6.00 Build 0)  -->
<!DOCTYPE svg PUBLIC "-//W3C//DTD SVG 1.1//EN" "http://www.w3.org/Graphics/SVG/1.1/DTD/svg11.dtd">
<svg version="1.1" xmlns="http://www.w3.org/2000/svg" xmlns:xlink="http://www.w3.org/1999/xlink" x="0px" y="0px"
	 width="595.279px" height="841.89px" viewBox="0 0 595.279 841.89" enable-background="new 0 0 595.279 841.89"
	 xml:space="preserve">
<g id="Capa_1">
	<g>
		<path fill="#F9BA55" d="M549.616,237.42l-119.898,9.835c-14.677-50.012-53.313-88.141-100.479-97.765
			c-17.704-13.322-38.262-22.178-60.805-25.097v-1.089h-15.425v0.878c-75.935,7.968-135.66,71.371-137.717,148.871l-98.346,8.063
			l60.857,380.511l351.533,56.957l83.757-41.734l82.186-383.558L549.616,237.42z M412.781,248.645l-24.346,1.997
			c-4.278-27.364-15.047-52.264-30.464-72.642C383.23,192.793,402.988,218.03,412.781,248.645z M322.585,165.099
			c25.242,20.25,43.374,51.163,49.247,86.904l-176.57,14.484c11.503-56.007,59.5-98.861,117.957-102.502
			C316.378,164.208,319.5,164.588,322.585,165.099z M260.397,140.216c12.686,0.894,24.848,4.015,36.187,9.016
			c-60.408,10.4-108.177,58.225-118.49,118.663l-46.226,3.792C134.654,201.414,190.527,144.555,260.397,140.216z M434.563,696.632
			l-6.711-1.711l113.403-445.212l6.71,1.708L434.563,696.632z"/>
	</g>
</g>
<g id="Capa_4">
	<path d="M320.73,334.462l-107.237-11.427c-10.336-1.101-19.201,5.085-19.752,13.784L182.118,520.21
		c-0.552,8.705,7.416,16.682,17.752,17.783l107.236,11.426c10.338,1.104,19.204-5.08,19.754-13.781l11.624-183.395
		C339.034,343.545,331.065,335.564,320.73,334.462z M201.438,350.607l127.713,13.609l-8.627,136.141L192.81,486.748L201.438,350.607
		z M213.038,330.202l107.234,11.427c5.649,0.602,9.999,4.956,9.697,9.707l-0.362,5.714l-127.714-13.609l0.361-5.714
		C202.555,332.976,207.393,329.601,213.038,330.202z M307.562,542.257l-107.238-11.43c-5.645-0.602-9.993-4.957-9.692-9.703
		l1.725-27.213l127.715,13.607l-1.726,27.213C318.045,539.48,313.206,542.857,307.562,542.257z M203.016,348.841l127.714,13.608
		l-8.627,136.141L194.388,484.98L203.016,348.841z"/>
	<path d="M251.989,504.515c-8.873-2.014-17.521,2.653-19.281,10.409c-1.76,7.754,4.026,15.699,12.899,17.712
		c8.874,2.016,17.522-2.654,19.282-10.41C266.649,514.471,260.863,506.529,251.989,504.515z M247.203,525.608
		c-4.437-1.007-7.329-4.98-6.449-8.859c0.88-3.877,5.203-6.209,9.64-5.203c4.437,1.007,7.33,4.977,6.45,8.855
		C255.963,524.279,251.639,526.614,247.203,525.608z"/>
	<path d="M244.359,349.75l16.478,0.833c2.279,0.115,4.202-1.402,4.303-3.393c0.1-1.989-1.66-3.692-3.939-3.808l-16.478-0.833
		c-2.278-0.115-4.201,1.402-4.302,3.392C240.32,347.934,242.081,349.636,244.359,349.75z"/>
	<path d="M275.204,352.574l4.102,0.437c2.268,0.242,4.272-1.166,4.483-3.148c0.211-1.981-1.451-3.779-3.721-4.021l-4.101-0.437
		c-2.267-0.242-4.272,1.166-4.484,3.146C271.273,350.534,272.936,352.332,275.204,352.574z"/>
</g>
<g id="Capa_6">
</g>
<g id="Capa_5">
	<g>
		<path fill="#FF3366" d="M285.412,394.502c-0.867-1.321-2.307-2.158-3.876-2.326l-34.074-3.642
			c-0.975-0.104-1.932,0.072-2.787,0.479l-1.092-6.272c-0.18-1.027-1.012-1.812-2.042-1.922l-2.647-0.283l-5.054-0.54
			c-0.963-0.103-1.837,0.592-1.941,1.566l-0.02,0.184c-0.103,0.963,0.592,1.836,1.566,1.941l6.625,0.708l2.104,12.315l2.89,16.99
			c-2.718,0.382-4.934,2.568-5.237,5.411c-0.345,3.222,1.882,6.136,5.035,6.683c-0.344,0.727-0.56,1.549-0.583,2.416
			c-0.082,2.936,2.039,5.541,4.929,6.045c3.447,0.613,6.642-1.84,7.006-5.254c0.074-0.689,0.029-1.355-0.122-1.996l6.969,0.744
			c-0.374,0.783-0.585,1.678-0.582,2.617c0.02,2.854,2.109,5.324,4.929,5.834c3.447,0.613,6.652-1.828,7.018-5.254
			c0.354-3.313-2.113-6.254-5.414-6.607l-23.277-2.486c-1.134-0.121-2.003-1.108-1.929-2.236c0.082-1.197,1.137-2.069,2.317-1.943
			l3.496,0.374l18.944,2.024l5.33,0.57c2.361,0.254,4.597-1.143,5.415-3.374l6.621-18.141
			C286.501,397.563,286.308,395.885,285.412,394.502z M268.686,428.337c1.078,0.115,1.867,1.094,1.751,2.168
			c-0.115,1.08-1.092,1.867-2.169,1.752c-1.077-0.115-1.865-1.092-1.75-2.17C266.633,429.011,267.598,428.222,268.686,428.337z
			 M250.475,426.39c1.077,0.117,1.866,1.094,1.75,2.17c-0.115,1.078-1.092,1.867-2.169,1.752c-1.077-0.117-1.866-1.094-1.75-2.172
			C248.421,427.064,249.386,426.275,250.475,426.39z M246.323,397.129l-0.557-3.247c-0.086-0.497,0.146-0.831,0.302-0.988
			c0.144-0.158,0.474-0.414,0.966-0.361l3.737,0.399l0.525,4.74l-4.974-0.532L246.323,397.129L246.323,397.129z M247.02,401.238
			l4.722,0.505l0.482,4.386l-4.458-0.476L247.02,401.238z M250.046,414.035c-0.516-0.056-0.938-0.448-1.021-0.967l-0.563-3.307
			l4.206,0.45l0.462,4.141l-3.083-0.33L250.046,414.035L250.046,414.035z M260.028,415.101l-2.819-0.301l-0.462-4.142l3.702,0.396
			l-0.432,4.045L260.028,415.101z M260.888,407.055l-4.584-0.489l-0.482-4.387l5.524,0.59L260.888,407.055z M261.772,398.781
			l-6.395-0.684l-0.526-4.739l7.416,0.792L261.772,398.781z M267.179,415.866l-3.152-0.337l0.433-4.046l4,0.428L267.179,415.866z
			 M269.736,408l-4.848-0.518l0.458-4.286l5.754,0.614L269.736,408z M265.772,399.208l0.495-4.63l7.565,0.809l-1.471,4.526
			L265.772,399.208z M275.547,415.879c-0.181,0.503-0.678,0.82-1.217,0.763l-3.071-0.329l1.292-3.954l4.126,0.441L275.547,415.879z
			 M278.091,408.895l-4.274-0.457l1.363-4.189l4.436,0.474L278.091,408.895z M282.16,397.727l-1.133,3.1l-4.584-0.49l1.47-4.526
			l3.276,0.351c0.494,0.052,0.75,0.358,0.859,0.543C282.168,396.892,282.337,397.269,282.16,397.727z"/>
	</g>
</g>
<g id="Capa_2">
	<g>
		<path fill="#252A34" d="M346.251,420.227c-1.214,0.009-2.451,0.195-3.688,0.545c-16.602,4.755-50.425,12.79-90.422,13.133
			c-39.997,0.346-75.752-7.092-93.508-11.554c-1.322-0.328-2.604-0.49-3.818-0.482c-7.185,0.063-11.5,5.774-10.486,13.894
			l16.022,128.327c1.1,8.808,7.737,19.49,15.111,24.327l85.445,56.047c3.851,2.527,8.721,3.897,13.707,3.854l8.575-0.072
			c4.988-0.044,9.508-1.495,12.716-4.082l71.288-57.39c6.148-4.955,10.107-15.726,9.008-24.532l-16.023-128.335
			C359.162,425.791,353.438,420.165,346.251,420.227z"/>
		<path fill="#CCFFFF" stroke="#252A34" stroke-width="2" stroke-miterlimit="10" d="M346.27,420.41
			c-1.215,0.009-2.451,0.194-3.689,0.545c-16.602,4.755-50.425,12.791-90.422,13.135c-39.997,0.344-75.753-7.094-93.508-11.555
			c-1.322-0.328-2.604-0.491-3.819-0.482c-7.184,0.063-11.5,5.774-10.485,13.894l16.022,128.327
			c1.1,8.807,7.737,19.489,15.111,24.327l85.445,56.046c3.852,2.528,8.721,3.898,13.708,3.854l8.574-0.072
			c4.99-0.045,9.509-1.495,12.717-4.081l71.288-57.392c6.148-4.954,10.106-15.727,9.008-24.533L360.195,434.09
			C359.18,425.973,353.454,420.346,346.27,420.41z M167.073,456.715c1.2-0.009,2.042-1.078,1.88-2.373l-0.882-7.067
			c-0.164-1.306-1.269-2.349-2.47-2.337c-1.199,0.011-2.043,1.067-1.88,2.374l0.881,7.067
			C164.765,455.674,165.872,456.726,167.073,456.715z M170.706,485.825c1.201-0.01,2.042-1.076,1.88-2.372l-1.818-14.561
			c-0.161-1.296-1.268-2.347-2.468-2.337c-1.2,0.01-2.042,1.078-1.88,2.374l1.818,14.561
			C168.4,484.785,169.507,485.836,170.706,485.825z M177.976,544.053c1.201-0.01,2.043-1.077,1.881-2.375l-1.818-14.56
			c-0.161-1.296-1.268-2.346-2.468-2.336c-1.201,0.009-2.042,1.078-1.88,2.375l1.817,14.558
			C175.67,543.013,176.777,544.063,177.976,544.053z M174.342,514.933c1.2-0.007,2.042-1.067,1.88-2.374l-1.817-14.548
			c-0.163-1.309-1.268-2.349-2.469-2.338c-1.2,0.011-2.044,1.068-1.88,2.372l1.816,14.552
			C172.036,513.91,173.141,514.946,174.342,514.933z M182.401,562.05l-0.725-5.81c-0.165-1.307-1.27-2.351-2.47-2.34
			c-1.201,0.011-2.043,1.07-1.88,2.374l1.038,8.313l6.928,4.618c0.409,0.275,0.853,0.407,1.274,0.403
			c0.692-0.006,1.33-0.371,1.668-1.048c0.539-1.084,0.104-2.541-0.983-3.268L182.401,562.05z M246.594,604.842
			c-1.07-0.717-2.398-0.439-2.942,0.644c-0.54,1.084-0.103,2.553,0.983,3.272l11.868,7.899c0.409,0.276,0.852,0.409,1.274,0.402
			c0.691-0.004,1.33-0.364,1.667-1.046c0.539-1.085,0.104-2.55-0.984-3.271L246.594,604.842z M222.856,589.014
			c-1.069-0.708-2.398-0.44-2.941,0.651c-0.539,1.086-0.104,2.544,0.981,3.259l11.869,7.915c0.409,0.273,0.852,0.399,1.273,0.393
			c0.692-0.002,1.329-0.369,1.668-1.045c0.538-1.087,0.104-2.545-0.982-3.257L222.856,589.014z M199.124,573.201
			c-1.074-0.717-2.398-0.442-2.942,0.641c-0.54,1.086-0.103,2.555,0.983,3.272l11.868,7.902c0.409,0.275,0.852,0.406,1.274,0.405
			c0.691-0.006,1.33-0.37,1.667-1.049c0.539-1.084,0.104-2.553-0.983-3.272L199.124,573.201z M279.091,620.912l-4.107,2.847
			l-4.655-3.101c-1.069-0.72-2.398-0.443-2.941,0.644c-0.539,1.083-0.105,2.541,0.983,3.266l7.128,4.755l6.284-4.352
			c0.958-0.664,1.129-2.11,0.389-3.229C281.422,620.607,280.035,620.251,279.091,620.912z M299.238,606.941l-10.077,6.99
			c-0.957,0.664-1.13,2.106-0.389,3.229c0.499,0.75,1.28,1.158,2.029,1.152c0.375-0.005,0.736-0.105,1.053-0.323l10.076-6.985
			c0.96-0.663,1.133-2.108,0.391-3.231C301.571,606.643,300.192,606.276,299.238,606.941z M319.391,592.975l-10.081,6.98
			c-0.955,0.663-1.129,2.11-0.388,3.226c0.498,0.755,1.285,1.17,2.032,1.164c0.373-0.004,0.735-0.104,1.052-0.329l10.079-6.977
			c0.957-0.665,1.128-2.109,0.387-3.23C321.723,592.679,320.335,592.317,319.391,592.975z M339.545,579.012l-10.08,6.979
			c-0.959,0.663-1.128,2.106-0.39,3.226c0.497,0.751,1.282,1.168,2.028,1.162c0.376-0.004,0.737-0.104,1.052-0.327l10.081-6.977
			c0.959-0.666,1.131-2.111,0.39-3.23C341.877,578.715,340.492,578.347,339.545,579.012z M354.981,561.03
			c-1.2,0.012-2.044,1.08-1.88,2.374l0.712,5.717l-4.199,2.91c-0.96,0.663-1.128,2.109-0.388,3.229
			c0.496,0.751,1.281,1.159,2.029,1.153c0.372-0.007,0.733-0.108,1.052-0.321l6.194-4.289l-1.053-8.431
			C357.286,562.069,356.187,561.02,354.981,561.03z M351.037,529.448c-1.2,0.011-2.043,1.079-1.881,2.374l1.972,15.797
			c0.163,1.305,1.27,2.345,2.47,2.337c1.201-0.012,2.042-1.071,1.88-2.376l-1.973-15.792
			C353.343,530.48,352.242,529.438,351.037,529.448z M343.152,466.283c-1.201,0.011-2.045,1.078-1.883,2.375l1.972,15.794
			c0.164,1.305,1.269,2.347,2.469,2.335c1.203-0.008,2.043-1.066,1.881-2.372l-1.972-15.793
			C345.456,467.323,344.356,466.27,343.152,466.283z M347.095,497.876c-1.201,0.01-2.045,1.07-1.881,2.374l1.97,15.792
			c0.164,1.295,1.272,2.348,2.474,2.339c1.199-0.013,2.039-1.082,1.877-2.374l-1.972-15.795
			C349.398,498.902,348.302,497.866,347.095,497.876z M340.296,443.437c-1.2,0.009-2.043,1.068-1.879,2.374l0.88,7.067
			c0.163,1.294,1.271,2.348,2.472,2.337c1.201-0.012,2.04-1.08,1.88-2.374l-0.884-7.068
			C342.601,444.467,341.502,443.425,340.296,443.437z M370.782,562.47c0.85,6.811-2.449,15.796-7.199,19.617l-71.285,57.385
			c-2.291,1.842-5.897,2.914-9.891,2.947l-8.468,0.074c-3.993,0.034-7.859-0.976-10.603-2.774l-85.458-56.041
			c-5.696-3.739-11.228-12.644-12.077-19.45L149.778,435.9c-0.599-4.797,1.671-7.922,5.786-7.956
			c0.77-0.007,1.606,0.095,2.487,0.318c18.006,4.523,54.268,12.062,94.834,11.713c40.566-0.35,74.868-8.492,91.709-13.315
			c0.833-0.238,1.641-0.354,2.411-0.36c4.108-0.036,7.16,3.043,7.758,7.839L370.782,562.47L370.782,562.47z"/>
	</g>
</g>
<g id="Capa_3" display="none">
</g>
</svg>
